<?xml version="1.0" encoding="UTF-8"?><svg id="a" xmlns="http://www.w3.org/2000/svg" viewBox="0 0 23.4 23.41" fill="currentColor"><path d="M18.51,0H4.89C2.19,0,0,2.19,0,4.89v13.63c0,2.7,2.19,4.89,4.89,4.89h13.63c2.69,0,4.88-2.2,4.88-4.9V4.89c0-2.7-2.19-4.89-4.89-4.89Zm3.49,18.51c0,1.93-1.56,3.5-3.48,3.5h-2.83V13.8h2.73l.43-3h-3.15v-1.28c0-1.15,.37-1.72,1.45-1.72h1.73v-2.87c-.3-.04-.95-.13-2.16-.13-2.53,0-4.02,1.34-4.02,4.39v1.61h-3v3h3v8.21H4.89c-1.92,0-3.49-1.57-3.49-3.49V4.89c0-1.92,1.57-3.49,3.49-3.49h13.62c1.92,0,3.49,1.57,3.49,3.49v13.62Z"/></svg>