<?xml version="1.0" encoding="UTF-8"?><svg id="a" xmlns="http://www.w3.org/2000/svg" viewBox="0 0 30 30" fill="currentColor"><path d="M21.82,26.71H8.19c-2.7,0-4.89-2.19-4.89-4.89V8.19c0-2.7,2.19-4.89,4.89-4.89h13.62c2.7,0,4.89,2.19,4.89,4.89v13.62c0,2.7-2.19,4.9-4.88,4.9ZM8.19,4.7c-1.92,0-3.49,1.57-3.49,3.49v13.63c0,1.92,1.57,3.49,3.49,3.49h13.63c1.92,0,3.48-1.57,3.48-3.5V8.19c0-1.92-1.57-3.49-3.49-3.49H8.19Z"/><path d="M10,9.2c.84,0,1.4,.56,1.4,1.31s-.56,1.31-1.5,1.31c-.84,0-1.4-.56-1.4-1.31s.56-1.31,1.5-1.31Zm1.5,11.6h-3v-8h3v8Zm10,0h-2.82v-4.37c0-1.21-.75-1.49-1.03-1.49s-1.22,.19-1.22,1.49v4.37h-2.92v-8h2.92v1.12c.38-.65,1.13-1.12,2.54-1.12s2.54,1.12,2.54,3.63v4.37h-.01Z"/></svg>