<svg width="300" height="101" viewBox="0 0 300 101" fill="none" xmlns="http://www.w3.org/2000/svg">
<path d="M72.2021 38.706H69.5703V64.8053H72.2021V38.706Z" fill="#549697"/>
<path d="M64.8436 77.1457L64.8387 77.1383V64.9509H64.8535L65.7744 64.5463L66.71 64.2083L67.6457 63.9221V81.8332L67.663 81.8504L66.631 82.6078L65.6287 83.3997L64.6436 84.2386L63.6906 85.0946L62.7698 85.9828L61.8662 86.903L60.9922 87.838L60.1528 88.8224L59.3628 89.824L58.5875 90.8405L57.8444 91.889L57.1334 92.9548L56.4569 94.0526L55.8274 95.1653L55.2126 96.2952L54.6473 97.4424L54.114 98.6217L53.6301 99.7985L53.1808 101L53.161 100.993H40.8242V89.7254H49.6577V85.8545H40.8242V83.2863H53.161V89.0321L53.1808 89.0444L54.1313 87.6777L55.1312 86.3528L56.1804 85.0774L57.2717 83.8266L57.2642 83.8192V71.876H57.2791L57.716 71.1655L58.1851 70.4722L58.7011 69.8086L59.2344 69.1795L59.7997 68.5652L60.3972 67.9854L61.0095 67.4352L61.639 66.9172V79.5906L61.6563 79.6054L63.2388 78.3299L64.8436 77.1457Z" fill="#549697"/>
<path d="M67.6457 62.1409L67.6482 62.1459L66.8063 62.3679L65.9842 62.6418L65.1596 62.9502L64.3696 63.2881L63.5771 63.6755L62.8019 64.0949L62.0612 64.5464L61.3329 65.0324L60.6219 65.548L59.9454 66.0982L59.2986 66.6631L58.669 67.2749L58.0716 67.9213L57.4889 68.5825L56.9581 69.261L56.4569 69.9715L55.973 70.7141L55.5361 71.4715L55.1312 72.2461L54.7608 73.0381L54.4374 73.8448L54.1461 74.6663L53.8893 75.5076L53.6622 76.3464L53.4844 77.2L53.3388 78.0561L53.2425 78.9295L53.1783 79.8003L53.161 80.6712L53.1783 81.5446L53.161 81.5594H40.8242V74.7329H46.2976V58.2528H51.0452L51.0551 58.243L51.5958 58.6229L52.176 58.9954L52.7586 59.3186L53.3709 59.5924L54.0004 59.849L54.6473 60.0612L55.3089 60.2216L55.973 60.3498L56.6347 60.4461L57.3112 60.4954H57.9901L58.669 60.4461L59.3307 60.3844L60.0071 60.2536L60.654 60.0933L61.3008 59.8984L61.9304 59.6566L62.5451 59.3655L63.1426 59.0596L63.7227 58.7043L64.2733 58.317L64.8041 57.8803L65.3053 57.4288L65.7744 56.9453L66.2261 56.4296L66.631 55.8968L67.0014 55.3318L67.3396 54.7496L67.6457 54.1525V62.1409Z" fill="#549697"/>
<path d="M67.6305 23.3386V42.0144H65.6283H65.611L65.1271 41.5457L64.6259 41.0942L64.0779 40.6921L63.5125 40.3047L62.9298 39.9643L62.3176 39.6583L61.7028 39.3993L61.0585 39.1575L60.4116 38.9799L59.7327 38.8343L59.071 38.7209L58.3921 38.6592L57.7156 38.6419L57.0367 38.6592L56.3578 38.7209L55.6961 38.8343L55.0172 38.9799L54.3728 39.1575L53.726 39.3993L53.1137 39.6583L52.499 39.9643L51.9188 40.3047L51.3534 40.6921L50.8029 41.0942L50.3042 41.5457L49.8178 42.0144H49.803H41.8262V29.5211H51.0794L47.6057 19.934H41.8262V17.1413H49.5759L54.0494 29.5211H64.8531V23.5828H64.8383L64.7395 22.7119L64.6111 21.8559L64.4186 20.9825L64.2062 20.1437L63.9495 19.3049L63.6582 18.4661L63.3199 17.6594L62.9471 16.8674L62.5447 16.0928L62.0904 15.3354L61.6065 14.5928L61.1078 13.8823L60.5573 13.189L59.9771 12.5254L59.3797 11.879L58.7501 11.2819L58.086 10.7022L57.3922 10.152L56.6812 9.6364L55.9381 9.16765L55.1801 8.71618L54.4049 8.31404L53.6149 7.92671L52.8051 7.60352L51.983 7.29514L49.2204 12.0591H41.8262V9.26387H47.6057L49.1562 6.58462H41.8262V3.82642H49.6252V3.84122L50.5609 4.01885L51.4991 4.24582L52.4027 4.50486L53.3063 4.81078L54.1951 5.14877L55.0666 5.5213L55.9233 5.94071L56.7627 6.39218L57.57 6.893L58.36 7.40862L59.1377 7.97358L59.8784 8.57062L60.5894 9.18492L61.2831 9.8461L61.9472 10.5245L62.5768 11.2351L63.1743 11.9777L63.7396 12.7523L64.2729 13.5418L64.7568 14.351L65.2234 15.1725L65.6456 16.0286L66.0307 16.8995L66.3714 17.7876L66.6775 18.6906L66.9516 19.596L67.1787 20.5162L67.3713 21.4513L67.517 22.3888L67.6305 23.3386Z" fill="#549697"/>
<path d="M31.6678 46.0975L31.5715 45.9692L31.458 45.8409L31.3617 45.7126L31.2654 45.5991L31.1518 45.4856L31.0531 45.3721L30.9395 45.2587L30.8432 45.1452L30.747 45.0317L30.6334 44.933L30.5371 44.8368L30.4235 44.7406L30.3272 44.6592L30.2137 44.5629L30.1174 44.4815L30.0038 44.4001L29.9075 44.3187L29.794 44.2546L29.6977 44.1904L29.5841 44.1263L29.4878 44.0621L29.3891 43.998L29.2755 43.9486L29.1792 43.9018L29.0657 43.8524L28.9669 43.8031L28.8533 43.771L28.7398 43.7389L28.6435 43.7069L28.5299 43.6748L28.4164 43.6427L28.3028 43.6279L28.1892 43.6106L28.0757 43.5934H28.0263L27.9621 43.5761H27.8337L27.7522 43.5588H27.3819L27.3004 43.5416H27.219L25.8636 43.5243L24.5082 43.507L23.1503 43.4898L21.8097 43.475H18.4669L17.788 43.4898H17.1263L16.4647 43.507L15.8006 43.5243L15.1562 43.5416L14.4946 43.5588L13.8477 43.5761L13.1861 43.6082L12.5417 43.6402L12.4775 43.6575L12.4133 43.6748L12.3491 43.6921L12.3022 43.7093L12.238 43.7414L12.1738 43.7587L12.1245 43.7907L12.0603 43.808L12.0134 43.8401L11.964 43.8722L11.8998 43.9215L11.8504 43.9536L11.801 43.9856L11.7541 44.035L11.7048 44.0819L11.6554 44.1139L11.6085 44.1633L11.5591 44.2126L11.527 44.2595L11.4801 44.3236L11.3986 44.4198L11.3172 44.5333L11.253 44.6616L11.1715 44.7751L11.1073 44.9034L11.0431 45.0169L10.9937 45.1452L10.9444 45.2735L10.8802 45.4017L10.8481 45.53L10.8012 45.6583L10.7691 45.7866L10.7197 45.9149L10.6876 46.0457L10.6703 46.1739L10.6382 46.3022L10.6209 46.4305L10.5888 46.5588L10.5716 46.7044V46.8327L10.5543 46.9609L10.537 47.0892V47.7529L10.5543 47.896V48.0267L10.5716 48.155L10.5888 48.2833L10.6061 48.4116L10.6382 48.6854L10.6703 48.9445L10.7197 49.2035L10.7691 49.4626L10.816 49.7216L10.9295 50.2372L11.1542 51.2709L11.1715 51.3524L11.2036 51.4165L11.2184 51.4979L11.2357 51.5621L11.2678 51.6262L11.2851 51.7076L11.3172 51.7718L11.3344 51.8359L11.3665 51.9173L11.3986 51.9815L11.4159 52.0456L11.448 52.127L11.4801 52.1912L11.4949 52.2553L11.527 52.3367L11.5591 52.4009L11.5912 52.465L11.6233 52.5464L11.6554 52.6106L11.6875 52.6747L11.7196 52.7561L11.7517 52.8203L11.7838 52.8844L11.8159 52.9658L11.848 53.03L11.88 53.0941L11.927 53.1755L11.9591 53.2397L11.9911 53.3038L12.0232 53.3852L12.0701 53.4494L12.1022 53.5135L12.1516 53.5777L12.1837 53.6591L12.2158 53.7232L12.2652 53.7874L12.2973 53.8688L12.3442 53.9329L12.3936 53.9971L12.4257 54.0612L12.4726 54.1426L12.5047 54.2068L12.554 54.2709L12.6009 54.3351L12.6503 54.4165L12.6824 54.4806L12.7318 54.5448L12.7787 54.6262L12.8281 54.6903L12.875 54.7545L12.9244 54.8186L12.9737 54.9L13.0207 54.9642L13.07 55.0283L13.1194 55.0925L13.1663 55.1566L13.2157 55.238L13.2651 55.3022L13.312 55.3663L13.3614 55.4304L13.4107 55.5119L13.4749 55.576L13.5243 55.6401L13.5712 55.7043L13.6206 55.7857L13.67 55.8498L13.7835 55.9806L13.8971 56.1262L14.0107 56.2544L14.1094 56.3827L14.223 56.5283L14.3365 56.6566L14.4501 56.8021L14.5637 56.9304L14.6921 57.0587L14.8056 57.2043L14.9192 57.3326L15.0328 57.4609L15.1611 57.6064L15.2253 57.6706L15.2722 57.7347L15.3364 57.7988L15.4006 57.863L15.45 57.9271L15.4821 57.9592L15.5142 57.9913L15.5463 58.0233L15.5636 58.0554L15.5957 58.0875L15.6278 58.1048L15.645 58.1368L15.6771 58.1689L15.7092 58.201L15.7265 58.233L15.7586 58.2503L15.7907 58.2824L15.808 58.3145L15.8401 58.3317L15.8574 58.3638L15.8894 58.3959L15.9067 58.4107L15.924 58.4428L15.9561 58.46L15.9734 58.4773L15.9907 58.5094L16.0228 58.5266L16.04 58.5587L16.0573 58.576L16.0894 58.608L16.1709 58.7043L16.2178 58.7363L16.2351 58.7684L16.2524 58.7857L16.2697 58.8029L16.3017 58.835L16.319 58.8523L16.3363 58.8844L16.3684 58.9016L16.3857 58.9337L16.403 58.951L16.4351 58.983L16.4672 59.0151V59.0324L16.4844 59.0497H16.4993L16.5165 59.0669L16.5338 59.0842L16.5511 59.1015V59.1187L16.5684 59.1335L16.5857 59.1508L16.6029 59.1681L16.6202 59.2001L16.6375 59.2174L16.6523 59.2347L16.6696 59.252L16.6869 59.2692L16.7042 59.284L16.7214 59.3161L16.7387 59.3334L16.756 59.3506L16.7881 59.3679L16.8029 59.4L16.8202 59.4172L16.8375 59.4321L16.8548 59.4493L16.872 59.4666V59.4839L16.8893 59.5011H16.9066L16.9239 59.5184L16.9387 59.5357L16.956 59.5529L16.9733 59.5702V59.585L17.0054 59.6023L17.0226 59.6196L17.0399 59.6368L17.0572 59.6541H17.0745V59.6714H17.0893L17.1066 59.6886L17.1239 59.7059H17.1412L17.1584 59.7207H17.1757L17.193 59.738H17.2103L17.2251 59.7552H17.2572V59.7725H17.2893L17.3066 59.7898H17.3387L17.3559 59.807H17.4029L17.4201 59.8243H17.4522L17.4695 59.8416H17.5337L17.551 59.8589H17.6152L17.6473 59.8737H17.7115L17.7435 59.8909H17.825L17.8571 59.9082H17.9386L17.9707 59.9255H18.067L18.1163 59.9427H18.2941L18.4546 59.96H18.7607L18.9212 59.9773H19.5187L19.6791 59.9945H20.8889L21.195 60.0118H21.8073L22.1134 59.9945H26.4586L26.619 60.0118H27.3943L27.4115 59.9945H27.5251L27.5424 59.9773H27.6239L27.6411 59.96H27.7053L27.7226 59.9427H27.7868L27.8041 59.9255H27.8362L27.8683 59.9082H27.9004L27.9325 59.8909H27.9497L27.967 59.8737H28.0164L28.0337 59.8589H28.0658L28.0831 59.8416H28.1003L28.1324 59.8243H28.1497L28.1818 59.807H28.1991L28.2164 59.7898L28.2485 59.7725H28.2658L28.2979 59.7552H28.3151L28.3472 59.738L28.3645 59.7207L28.3966 59.7059H28.4139L28.446 59.6886L28.4633 59.6714H28.4954L28.5126 59.6541L28.5447 59.6368L28.562 59.6196L28.5941 59.6023L28.6089 59.585L28.641 59.5702H28.6731L28.7225 59.5209L28.7867 59.4715L28.8509 59.4247L28.9151 59.3753L28.9793 59.3112L29.0434 59.2643L29.1076 59.215L29.1545 59.1656L29.2187 59.1187L29.2829 59.0546L29.3471 59.0052L29.3965 58.9584L29.4607 58.8942L29.5101 58.8474L29.5742 58.7832L29.6384 58.7339L29.6878 58.6697L29.752 58.6204L29.8014 58.5562L29.8656 58.4921L29.915 58.4428L29.9643 58.3786L30.0285 58.3145L30.0779 58.2676L30.1421 58.2034L30.1915 58.1393L30.2408 58.0752L30.2877 58.011L30.3519 57.9469L30.4013 57.8827L30.4482 57.8186L30.4976 57.7544L30.5445 57.6903L30.5939 57.6261L30.6433 57.562L30.6902 57.4979L30.7395 57.4337L30.7889 57.3696L30.8358 57.3054L30.8852 57.2413L30.9346 57.1771L30.9667 57.0957L31.0161 57.0316L31.0654 56.9674L31.0975 56.9033L31.1444 56.8391L31.1938 56.7577L31.2259 56.6936L31.2728 56.6294L31.3049 56.5653L31.3543 56.4839L31.3864 56.4197L31.4358 56.3556L31.4679 56.2742L31.4999 56.21L31.5469 56.1459L31.5789 56.0645L31.611 56.0003L31.6431 55.9362L31.6752 55.8548L31.7246 55.7906L31.7567 55.7092L31.7888 55.6451L31.8209 55.5809L31.853 55.4995L31.8851 55.4354L31.9024 55.354L31.9345 55.2898L31.9666 55.2084L31.9987 55.1443L32.0307 55.0628L32.0628 54.9987L32.0777 54.9173L32.1098 54.8531L32.1418 54.7717L32.1591 54.6903L32.1912 54.6262L32.206 54.5448L32.2381 54.4806L32.2554 54.3992L32.2875 54.3178L32.3048 54.2364L32.3369 54.1722L32.3517 54.0908L32.3838 54.0094L32.4011 53.928L32.4184 53.8466L32.4505 53.7824L32.4677 53.701L32.4825 53.6196L32.4998 53.5382L32.5171 53.4568L32.5492 53.3754L32.5665 53.2939L32.5838 53.2125L32.601 53.1311L32.6183 53.0497L32.6331 52.9683L32.6504 52.8869L32.6677 52.7882L32.685 52.7068L32.7023 52.6254L32.7196 52.544L32.7368 52.4625L32.7541 52.3663V52.2849L32.7714 52.2035L32.7862 52.1073L32.8035 52.0259L32.8208 51.9272V51.8458L32.8381 51.7471L32.8553 51.6657V51.5695L32.8726 51.4708V51.3894L32.8899 51.2931L32.9072 51.1945V51.113L32.922 51.0168V50.9181L32.9393 50.8219V50.7257L32.9566 50.627V50.4173L32.9738 50.3853V50.2249L32.9911 50.1928L32.9738 50.0473L32.9566 49.919V49.7734L32.9393 49.6279L32.922 49.4996L32.8899 49.354L32.8726 49.2085L32.8553 49.0802L32.8232 48.9346L32.7912 48.8063L32.7763 48.6608L32.7442 48.5325L32.6949 48.4042L32.6628 48.2586L32.6307 48.1303L32.5813 48.0021L32.5492 47.8565L32.4998 47.7282L32.4529 47.5999L32.4035 47.4716L32.3394 47.3409L32.29 47.2126L32.2406 47.0843L32.1764 46.9708L32.0628 46.7118L31.9345 46.47L31.7419 46.0975H31.6678ZM37.4005 46.9067V49.5687L37.0129 49.5193L36.8203 49.4872L36.6425 49.47L36.4475 49.4552H36.2549L36.0599 49.4379H35.8673L35.7686 49.4552H35.6723L35.576 49.47H35.4773L35.381 49.4872L35.2847 49.5045L35.1884 49.5218L35.0896 49.5538L34.9934 49.5711L34.8971 49.6032L34.7983 49.6353L34.7514 49.6673L34.702 49.6846L34.6699 49.7019L34.623 49.7339L34.5909 49.766L34.5588 49.7981L34.5267 49.8302L34.5095 49.8622L34.4774 49.8943L34.4601 49.9412L34.4428 49.9905L34.4255 50.0226L34.4082 50.0695V50.1188L34.391 50.215L34.3737 50.3285L34.3589 50.4272V50.5407L34.3416 50.7504L34.3243 50.9749L34.307 51.1846L34.2897 51.3795L34.2576 51.5892L34.2404 51.7989L34.2083 52.0086L34.191 52.201L34.1589 52.3959L34.1268 52.6056L34.0947 52.8005L34.0626 52.9954L34.0305 53.1879L33.9811 53.3655L33.949 53.5604L33.9021 53.7528L33.8528 53.9305L33.8207 54.1254L33.7565 54.303L33.7071 54.4806L33.6602 54.6755L33.596 54.8531L33.5466 55.0308L33.4824 55.2084L33.4182 55.386L33.354 55.5464L33.2899 55.724L33.2084 55.9017L33.1442 56.0793L33.0627 56.2396L32.9813 56.4173L32.8998 56.5776L32.8183 56.7553L32.7196 56.9156L32.6381 57.076L32.5418 57.2363L32.443 57.414L32.3468 57.5743L32.2332 57.7347L32.1344 57.8951L32.0209 58.0554L31.9073 58.2158L31.7937 58.3761L31.6802 58.5217L31.5666 58.6821L31.4358 58.8276L31.3074 58.988L31.1938 59.1335L31.0654 59.2791L30.9198 59.4247L30.7914 59.5702L30.663 59.7158L30.5173 59.8441L30.3717 59.9748L30.226 60.1204L30.0804 60.2487L29.9347 60.3769L29.7742 60.4904L29.631 60.6187L29.4706 60.7322L29.3101 60.8457L29.1496 60.9592L28.9891 61.0727L28.8287 61.1689L28.6682 61.2824L28.5694 61.3144L28.488 61.3638L28.3917 61.3959L28.3596 61.4107L28.3102 61.4279L28.2139 61.4452L28.1152 61.4625L28.0189 61.4797H27.535L27.1326 61.4625H26.745L26.3573 61.4452H25.5821L24.8069 61.4279L24.049 61.4452H19.8495L19.4619 61.4279H19.0743L18.6866 61.4107L18.299 61.3959L17.8966 61.3786L17.509 61.3613L17.2992 61.344H17.2004L17.1041 61.3268L17.0078 61.3095L16.9091 61.2922L16.8276 61.2602L16.7313 61.2454L16.6499 61.196L16.5684 61.1639L16.4869 61.1146L16.4054 61.0677L16.324 61.0036L16.2425 60.9394L16.1783 60.8753L16.1141 60.8112L15.9685 60.6656L15.8228 60.52L15.2747 59.9378L15.0007 59.6467L14.7266 59.3408L14.4674 59.0497L14.1934 58.7437L13.9341 58.4526L13.6601 58.1467L13.4009 57.8408L13.1589 57.5349L12.8997 57.2289L12.6577 56.923L12.4158 56.6171L12.1887 56.2939L11.964 55.9707L11.7393 55.6648L11.5295 55.3416L11.4332 55.164L11.3196 55.0036L11.2209 54.8433L11.1246 54.6829L11.0283 54.5226L10.9295 54.3449L10.8481 54.1846L10.7518 54.0242L10.6703 53.8466L10.5888 53.6689L10.4926 53.5086L10.4284 53.331L10.3469 53.1706L10.2654 52.993L10.2012 52.8153L10.1198 52.6377L10.0556 52.4601L9.99138 52.2824L9.94447 52.1048L9.88028 51.9272L9.83091 51.7496L9.76672 51.5571L9.71734 51.3795L9.67043 51.2019L9.63834 51.0094L9.58896 50.8145L9.55687 50.6369L9.52477 50.4445L9.49267 50.2496L9.46058 50.0719L9.42849 49.8795L9.4112 49.6846L9.3643 49.2973L9.3322 48.9099L9.28282 48.5226L9.26554 48.1353L9.25073 48.0391V47.9404L9.23345 47.8442L9.21616 47.7948V47.7479L9.19888 47.6986L9.16679 47.6665L9.14951 47.6197L9.11741 47.5703L9.10013 47.5382L9.06803 47.4889L9.03594 47.4568L9.00384 47.4248L8.97175 47.3927L8.92237 47.3606L8.89028 47.3285L8.8409 47.2965L8.75943 47.2323L8.67796 47.1854L8.5792 47.1361L8.48292 47.104L8.38663 47.072L8.28788 47.0572L8.19159 47.0399H8.09531L7.91755 47.0226L7.72498 47.0054L7.52994 46.9881L7.33491 46.9708L7.14234 46.9535L6.9473 46.9363L6.75473 46.919L6.38193 46.8721L5.99432 46.808L5.60672 46.7438L5.23392 46.6797L4.84631 46.6156L4.08838 46.47L3.94271 46.3886L3.87852 46.3565L3.81433 46.3096L3.75014 46.2776L3.68595 46.2282L3.62177 46.1961L3.58967 46.1641L3.55758 46.1468L3.52548 46.1147L3.49339 46.0975L3.46129 46.0654L3.4292 46.0333L3.3971 46.0161L3.37982 45.984L3.34772 45.9519L3.31563 45.9198L3.29835 45.905L3.26625 45.873L3.24897 45.8409L3.21687 45.7915L3.19959 45.7595L3.1675 45.7274L3.15022 45.6953L3.1354 45.6633L3.10331 45.6164L3.08603 45.5843L3.06874 45.5522L3.05146 45.5029L3.03418 45.4708L3.0169 45.4215L3.00209 45.3894L2.9848 45.3425L2.96752 45.2932L2.95024 45.2611L2.93296 45.2118V45.1649L2.91568 45.1328L2.89839 45.0835L2.88111 45.0366V44.9873L2.86383 44.9379V44.8911L2.84902 44.859V44.7628L2.83173 44.7134V44.5679L2.81445 44.5185V44.2274L2.83173 44.1805V44.0523L2.84902 44.0029V43.9536L2.86383 43.9067V43.8574L2.88111 43.808V43.7759L2.89839 43.7266V43.6773L2.91568 43.6304L2.93296 43.5983L2.95024 43.549V43.4996L2.96752 43.4676L2.9848 43.4182L3.00209 43.3861L3.0169 43.3393L3.03418 43.3072L3.05146 43.2578L3.06874 43.2258L3.08603 43.1937L3.11812 43.1616L3.1354 43.1123L3.15022 43.0802L3.18231 43.0481L3.19959 43.0161L3.21687 42.984L3.24897 42.9519L3.26625 42.9199L3.29835 42.8878L3.33044 42.8705L3.34772 42.8384L3.37982 42.8064L3.41191 42.7891L3.4292 42.757L3.46129 42.7398L3.49339 42.7225L3.52548 42.6904L3.55758 42.6732L3.58967 42.6559L3.62177 42.6411L3.65386 42.6238L3.68595 42.6065L3.71805 42.5893H3.76743L3.79952 42.572H3.83162L3.86371 42.5547H3.91309L3.94518 42.5375H4.02666L4.05875 42.5202H4.88334L5.04382 42.5029H5.68819L6.01161 42.4881H6.33502L6.65844 42.4708L6.98186 42.4536H7.288L7.61142 42.4363L7.91755 42.419L8.22369 42.4018L8.52983 42.3845L8.85324 42.3524L9.15938 42.3376L9.46552 42.3204L10.0803 42.2883L10.6925 42.2389L11.3073 42.2069L11.6134 42.1921L11.9195 42.1748L12.2257 42.1575L12.5318 42.1403L12.838 42.123L13.1441 42.1057H13.4502L13.7564 42.0885L14.0625 42.0712L14.3686 42.0539H14.6921L14.9982 42.0391H15.3043L15.6105 42.0218H15.9339L16.24 42.0046H16.8548L17.4843 41.9873H18.7434L19.373 41.97H20.6173L21.2468 41.9873H23.1528L23.7823 42.0046H24.4119L25.6883 42.0218L26.9474 42.0391L27.2708 42.0539H27.5942L27.7399 42.0712H27.9818L28.0633 42.0885H28.1275L28.209 42.1057H28.2905L28.3719 42.123L28.4361 42.1403H28.5176L28.5991 42.1575L28.6632 42.1748L28.7447 42.1921L28.8089 42.2069L28.8904 42.2241L28.9546 42.2562L29.036 42.2735L29.1002 42.2908L29.1644 42.3228L29.2459 42.3401L29.3101 42.3722L29.3743 42.3894L29.4557 42.4215L29.5199 42.4536L29.5841 42.4708L29.6483 42.5029L29.7125 42.535L29.794 42.5671L29.8582 42.5991L29.9224 42.6312L29.9865 42.6633L30.0507 42.6954L30.1149 42.7274L30.1791 42.7743L30.2433 42.8064L30.3075 42.8384L30.3717 42.8878L30.4359 42.9199L30.5001 42.9692L30.5643 43.0013L30.6112 43.0506L30.6754 43.0975L30.7395 43.1296L30.8037 43.1789L30.8679 43.2258L30.9173 43.2751L30.9815 43.3245L31.0457 43.3713L31.0951 43.4207L31.1592 43.47L31.2234 43.5169L31.2728 43.5662L31.337 43.6156L31.3864 43.6625L31.4506 43.7266L31.4999 43.7735L31.6135 43.887L31.7271 43.9832L31.8406 44.0967L31.9542 44.2101L32.0678 44.3384L32.1641 44.4519L32.2776 44.5802L32.3912 44.6937L32.49 44.822L32.5862 44.9503L32.6998 45.0638L32.7986 45.192L32.8948 45.3228L32.9911 45.4684L33.0874 45.5966L33.201 45.7249L33.2973 45.8532L33.3936 45.9988L33.475 46.1271L33.5713 46.2726L33.6676 46.4009L33.7663 46.5465L33.8626 46.6748L34.0404 46.9659L34.2181 47.2397L34.3169 47.3853L34.3342 47.4174L34.3663 47.4494L34.3836 47.4815L34.4008 47.4988L34.4181 47.516L34.4354 47.5333L34.4527 47.5506V47.5678H34.47L34.4848 47.5851H34.5021V47.6024H34.5342L34.5514 47.6172H34.6798L34.6971 47.6024H34.7292L34.7613 47.5851L34.7934 47.5678L34.8255 47.5506L34.8428 47.5333L34.8749 47.516L34.9069 47.484L34.939 47.4667L34.9884 47.4346L35.0205 47.4174L35.0526 47.3853L35.1168 47.3359L35.1983 47.2891L35.2304 47.257L35.2797 47.2397L35.3118 47.2077L35.3439 47.1904L35.3933 47.1583L35.4254 47.141L35.4723 47.1238L35.5044 47.0917L35.5538 47.0744L35.6007 47.0572L35.6328 47.0399L35.6822 47.0251L35.7291 47.0078L35.7612 46.9905L35.8105 46.9733H35.8599L35.9068 46.956L35.9562 46.9387H36.0056L36.0525 46.9215H36.0846L36.134 46.9042H36.1809L36.2302 46.8869H36.3438L36.4401 46.8721H36.5389L36.6351 46.8549H37.0548L37.1684 46.8721H37.3783L37.4005 46.9067Z" fill="white"/>
<path d="M37.3684 2.66445V12.7351L35.7044 12.6241L34.8823 12.5895H34.075H33.6553L33.2504 12.6068L32.8455 12.6389L32.4431 12.6709L32.0382 12.7351L31.653 12.7992L31.2482 12.8806L30.8605 12.9769L30.4729 13.0903L30.0853 13.2211L29.6977 13.3642L29.3101 13.527L28.9398 13.7195L28.567 13.8971L27.8091 14.3165L26.3376 15.1726L25.597 15.592L25.2242 15.8017L24.8538 15.9966L24.4811 16.1742L24.1107 16.3494L23.7379 16.4949L23.3676 16.6405L22.9973 16.754L22.6072 16.8527L22.2369 16.9316L21.8493 16.9637L21.4617 16.9957L21.0741 16.9809L20.6716 16.9316L20.284 16.8675L19.8791 16.7712L19.4767 16.6578L18.6694 16.3987L17.8448 16.1249L17.4572 15.9966L17.0523 15.8831L16.6499 15.7869L16.2623 15.7227L15.8574 15.6734H15.6648H15.4722L15.2945 15.6882L15.0994 15.7055L14.9069 15.7375L14.7291 15.7869L14.5341 15.8337L14.3563 15.9004L14.1786 15.9793L14.0008 16.0607L13.8231 16.1742L13.6453 16.2704L13.4848 16.3839L13.3071 16.5122L12.9836 16.786L12.6775 17.0944L12.4035 17.4176L12.1294 17.7704L11.8875 18.1429L11.6603 18.5303L11.4505 18.9324L11.2727 19.337L11.1271 19.7564L11.0135 20.1931L10.9345 20.6125L10.8679 21.0319L10.853 21.4661L10.8358 21.888L10.853 22.2901L10.8679 22.712L10.9345 23.5335L10.9814 24.3403L10.9987 24.7449V25.1322L10.9641 25.5195L10.9172 25.9069L10.8358 26.2769L10.7074 26.6642L10.579 27.0368L10.4161 27.392L10.0605 28.1346L9.69021 28.8748L9.52974 29.2646L9.38408 29.6519L9.25323 30.0392L9.15694 30.4414L9.12485 30.6362L9.09275 30.846L9.07547 31.2654L9.06066 31.6848L9.04338 32.1042L9.01128 32.2966L8.97918 32.4915L8.92981 32.6691L8.8508 32.8468L8.76933 33.0071L8.65577 33.1699L8.54467 33.3303L8.41382 33.4759L8.13978 33.767L7.83364 34.0729L7.54232 34.3961L7.39666 34.5737L7.25099 34.7513L6.99177 35.1214L6.74982 35.526L6.52515 35.9306L6.3153 36.35L6.10545 36.7694L5.8956 37.1716L5.68328 37.5589L5.45861 37.9141L5.34505 38.077L5.21667 38.2225L5.1031 38.3681L4.97472 38.4964L4.84387 38.6099L4.70068 38.7061L4.55502 38.8023L4.40936 38.8664L4.24888 38.9158L4.08594 38.9479L3.90818 38.9627H3.73042L3.55267 38.9479L3.3601 38.9158L3.15024 38.8664L2.95521 38.8023L2.5355 38.674L2.1158 38.5136L2.5676 37.4627L2.79473 36.9298L3.00458 36.4142L3.19715 35.8813L3.3601 35.3657L3.50576 34.8476L3.61686 34.3319L3.71561 33.7991L3.73042 33.5573L3.76252 33.2982V33.0417V32.7826L3.7477 32.5236L3.73042 32.267L3.68351 32.0079L3.63414 31.7662L3.56995 31.5071L3.48848 31.2654L3.407 31.0063L3.29591 30.7645L3.18234 30.5055L3.06877 30.2637L2.79473 29.7629L2.50341 29.2794L1.92323 28.295L1.64919 27.8114L1.40477 27.3254L1.29121 27.0836L1.19492 26.8419L1.11345 26.6001L1.04926 26.3583L0.985069 26.1166L0.952974 25.8748L0.938161 25.633V25.3912L0.952974 25.1495L1.00235 24.9052L1.06654 24.6634L1.14801 24.4044L1.2443 24.1626L1.35786 23.9208L1.59981 23.42L1.82448 22.9192L1.93804 22.6774L2.03433 22.4209L2.1158 22.1618L2.17999 21.9028L2.22937 21.6289L2.26146 21.3699L2.24418 21.096L2.21208 20.8222L2.14789 20.5483L2.05161 20.2745L1.92323 19.9982L1.77757 19.7243L1.59981 19.4505L1.42205 19.1914L1.04926 18.6758L0.871502 18.4168L0.678932 18.1923L0.518457 17.9653L0.355514 17.7704L0.227134 17.578L0.130849 17.4003L0.0814718 17.3189L0.0493769 17.2548L0.0172819 17.1906L0 17.1265V17.0599V17.013L0.0172819 16.9637L0.032095 16.9316L0.0641899 16.8995L0.113567 16.8675L0.160475 16.8354L0.227134 16.8181L0.291324 16.8033L0.372795 16.786H0.53327H0.743122L0.967787 16.8033L1.22948 16.8181L1.50353 16.8527L1.79238 16.8995L2.09852 16.9316L2.42194 16.9809L2.76264 17.0303L3.45638 17.1265L4.16741 17.1906L4.50564 17.2054L4.86115 17.2227H5.19938L5.54009 17.2054L5.8635 17.1758L6.16964 17.1265L6.46096 17.0599L6.73501 16.9637L6.97695 16.8527L7.2189 16.7219L7.44603 16.5763L7.65588 16.416L7.86574 16.2531L8.04102 16.0607L8.23606 15.8658L8.39901 15.6734L8.73724 15.254L9.04338 14.8173L9.34951 14.3658L9.65812 13.9144L10.2235 13.0089L10.7888 12.0739L11.8529 10.1866L12.3862 9.2491L12.9195 8.32888L13.4848 7.40865L13.7761 6.97198L14.065 6.52297L14.3736 6.1011L14.6797 5.68169L15.0032 5.26229L15.3266 4.85769L15.6648 4.47036L16.0203 4.08549L16.3907 3.72776L16.7783 3.37497L17.1683 3.03451L17.588 2.71133L18.0226 2.42021L18.4744 2.13156L18.9262 1.85525L19.41 1.59867L19.8964 1.3717L20.3951 1.14719L20.9136 0.952294L21.4468 0.774664L21.9801 0.614304L22.5109 0.468746L23.0615 0.340458L23.6268 0.241774L24.1749 0.145558L24.7403 0.0814138L25.3056 0.0320721L25.871 0H26.4364L27.0017 0.0172696L27.5671 0.0493417L28.13 0.0986834L28.6806 0.17763L29.2459 0.276313L29.7792 0.387332L30.3273 0.53289L30.8605 0.695718L31.3765 0.870881L31.8777 1.08305L32.3789 1.30755L32.8628 1.5666L33.3467 1.82564L33.8158 2.09949L34.2848 2.35607L34.5095 2.46955L34.7539 2.56577L34.9959 2.64718L35.2526 2.69652L35.4946 2.7434L35.7538 2.76067H36.0278H36.2871L36.8203 2.7286L37.3684 2.66445Z" fill="white"/>
<path d="M25.1115 90.1473V90.7444L25.0967 91.3093L25.0646 91.8743L25.0153 92.422L24.9511 92.9549L24.919 93.1966L24.8869 93.4384L24.8548 93.6654L24.8054 93.8923L24.7733 94.1021L24.7239 94.2945L24.677 94.4721L24.6277 94.6497L24.5956 94.7953L24.5462 94.9409L24.4993 95.0543L24.4499 95.1654L24.403 95.2468L24.3536 95.3109L24.3042 95.3603L24.2721 95.3923H24.2252L24.1759 95.3775L24.1438 95.343L24.0968 95.2789L24.0475 95.1999L24.0154 95.1185L23.966 95.005L23.9339 94.8767L23.8845 94.7312L23.8524 94.5683L23.8055 94.408L23.7562 94.2131L23.7241 94.0206L23.6771 93.8109L23.6278 93.6012L23.5784 93.3595L23.5315 93.1152L23.4821 92.8734L23.3685 92.3578L23.255 91.8101L23.1414 91.2452L23.013 90.6629L22.8674 90.0832L22.7069 89.4837L22.5291 88.9039L22.3514 88.3389L22.1415 87.774L21.9317 87.2584L21.6897 86.7403L21.4305 86.2567L21.1737 85.8052L20.8824 85.3686L20.5911 84.9492L20.2677 84.5618L19.9467 84.1745L19.606 83.8192L19.2653 83.4813L18.895 83.1581L18.5247 82.867L18.1519 82.5758L17.7643 82.302L17.3618 82.0281L16.957 81.7864L16.5545 81.5446L16.1348 81.3176L15.7151 81.1079L15.2954 80.8982L14.4387 80.5109L13.582 80.1384L12.7105 79.8004L11.8539 79.4599L10.9996 79.1392L10.175 78.816L9.36773 78.4755L8.96531 78.3004L8.5777 78.1227L8.2049 77.9451L7.83458 77.7502L7.47906 77.5405L7.12355 77.3456L6.78532 77.1211L6.4619 76.8966L6.15329 76.6524L5.84716 76.4106L5.57312 76.1516L5.29907 75.8777L5.05713 75.5891L4.81518 75.2807L4.60286 74.9575L4.39301 74.6195L4.21525 74.2642L4.05478 73.8942L3.90912 73.5044L3.78074 73.1022L3.68445 72.6828L3.58817 72.2634L3.50669 71.8268L3.4425 71.3753L3.39313 70.9238L3.37584 70.4723L3.34375 70.0036V69.5348L3.36103 69.0661L3.37584 68.5825L3.42522 68.1138L3.45732 67.6475L3.52151 67.1788L3.58817 66.71L3.66717 66.2437L3.76345 65.7898L3.86221 65.3556L3.97331 64.9016L4.20044 64.048L4.4572 63.192L4.99047 61.5291L5.2497 60.6903L5.47683 59.8491L5.58793 59.4297L5.68421 58.9954L5.76569 58.5588L5.84716 58.1246L5.91135 57.6879L5.96072 57.2364L5.99282 56.7997L6.02491 56.3483L6.0422 55.8968V55.4428L6.00763 55.0086L5.97554 54.5572L5.92863 54.1032L5.84716 53.669L5.75087 53.2323L5.63731 52.7957L5.50893 52.3615L5.36326 51.9248L5.18551 51.5054L4.99047 51.086L4.7979 50.6814L4.62014 50.262L4.53867 50.0523L4.47448 49.8426L4.41029 49.6329L4.36091 49.4232L4.3461 49.2135L4.32882 49.0038L4.3461 48.7941L4.36091 48.5671L4.41029 48.3574L4.4572 48.1329L4.57077 47.6962L5.10404 47.6814H5.63731H6.13848L6.39524 47.6962L6.63966 47.7135L6.86432 47.7455L7.09145 47.7776L7.30131 47.8245L7.49388 47.8738L7.68891 47.938L7.86667 48.0194L8.01233 48.1008L8.158 48.2118L8.28638 48.3253L8.39994 48.4561L8.49623 48.6016L8.5777 48.762L8.64189 48.9396L8.6888 49.132L8.72336 49.3269L8.75299 49.5366L8.77027 49.7611V49.9881V50.4569L8.75299 50.9577L8.72336 51.456L8.6888 51.9741L8.6567 52.4897V52.9906L8.67398 53.4914L8.70608 53.9749L8.75299 54.4437L8.83446 54.8951L8.91593 55.3466L9.02703 55.7833L9.17269 56.2175L9.31835 56.6394L9.49611 57.0242L9.70596 57.4288L9.93309 57.8014L10.175 58.1714L10.4491 58.5119L10.7404 58.8499L11.0465 59.1731L11.3848 59.479L11.7576 59.7849L12.1452 60.0612L12.5501 60.3351L12.9698 60.6089L13.3895 60.8507L14.2462 61.3688L15.0856 61.8671L15.488 62.1262L15.8756 62.3852L16.2459 62.6418L16.6039 62.9181L16.9249 63.2068L17.0705 63.3696L17.2162 63.5151L17.3446 63.6755L17.4581 63.8359L17.5717 63.9987L17.6853 64.159L17.7643 64.3367L17.8457 64.5143L17.9099 64.6919L17.9741 64.8868L18.0235 65.0793L18.0383 65.289L18.0556 65.4839L18.0729 65.7084L18.0383 66.1451L18.0087 66.5965L17.9099 67.5168L17.8951 67.9682L17.863 68.437V68.8885V69.3572V69.8087L17.8778 70.2774L17.9099 70.7289L17.942 71.1804L17.9914 71.6491L18.0383 72.1006L18.105 72.5521L18.184 73.006L18.2654 73.4575L18.3469 73.909L18.5568 74.7971L18.7987 75.668L19.0579 76.5389L19.3641 77.395L19.6875 78.219L20.043 79.0405L20.4306 79.8324L20.833 80.6219L21.27 81.367L21.7391 82.1096L22.223 82.8028L23.2229 84.1745L23.4648 84.5298L23.692 84.885L23.9191 85.2551L24.1265 85.6424L24.3215 86.0618L24.4993 86.4812L24.6622 86.9352L24.7239 87.1597L24.7906 87.4039L24.8548 87.6605L24.9042 87.9195L24.9511 88.1761L25.0004 88.4524L25.0474 89.0001L25.0967 89.5824L25.1115 90.1473Z" fill="white"/>
<path d="M57.5868 51.4709C58.6476 51.4709 59.5075 50.6115 59.5075 49.5515C59.5075 48.4914 58.6476 47.6321 57.5868 47.6321C56.526 47.6321 55.666 48.4914 55.666 49.5515C55.666 50.6115 56.526 51.4709 57.5868 51.4709Z" fill="white"/>
<path d="M53.4223 48.6484C53.837 46.7291 55.5455 45.2907 57.5897 45.2907C59.6339 45.2907 61.3423 46.7291 61.7571 48.6484H64.0778C63.6359 45.461 60.9004 43.0062 57.5897 43.0062C54.279 43.0062 51.5435 45.461 51.1016 48.6484H53.4223Z" fill="#549697"/>
<path d="M61.7476 50.4988C61.3156 52.396 59.6195 53.8121 57.5901 53.8121C55.5607 53.8121 53.8646 52.396 53.4326 50.4988H51.1094C51.5686 53.664 54.2942 56.0966 57.5901 56.0966C60.886 56.0966 63.6116 53.664 64.0708 50.4988H61.7476Z" fill="#549697"/>
<path d="M116.264 80.0472H107.652V20.931H116.264V80.0472Z" fill="white"/>
<path d="M153.03 40.0878V32.7531C153.03 31.7046 152.993 30.8584 152.919 30.2096C152.845 29.5607 152.682 29.0747 152.432 28.7515C152.183 28.4283 151.808 28.2038 151.309 28.078C150.81 27.9546 150.161 27.8905 149.361 27.8905C148.512 27.8905 147.85 27.9546 147.376 28.078C146.902 28.2038 146.539 28.4283 146.29 28.7515C146.041 29.0772 145.878 29.5632 145.804 30.2096C145.729 30.8584 145.69 31.7071 145.69 32.7531V38.5902C145.69 39.7868 145.813 40.6725 146.065 41.2473C146.315 41.8221 146.939 42.4068 147.937 43.0063C148.786 43.5565 149.922 44.1782 151.344 44.8764C152.766 45.5746 154.326 46.4479 156.025 47.4964C157.271 48.2958 158.284 49.0186 159.056 49.6675C159.829 50.3163 160.404 51.0391 160.78 51.8385C161.155 52.6378 161.404 53.5852 161.528 54.683C161.651 55.7809 161.715 57.1526 161.715 58.7981V68.3013C161.715 71.0447 161.552 73.2404 161.229 74.886C160.903 76.5315 160.293 77.7922 159.395 78.6656C158.496 79.5389 157.247 80.1113 155.649 80.3876C154.052 80.6614 151.981 80.7996 149.433 80.7996C146.885 80.7996 144.989 80.6614 143.441 80.3876C141.893 80.1137 140.671 79.5537 139.772 78.705C138.874 77.8564 138.249 76.6105 137.901 74.9625C137.55 73.3169 137.377 71.0965 137.377 68.3013V56.5531H145.764V68.3013C145.764 69.3498 145.801 70.1862 145.875 70.8079C145.949 71.4321 146.112 71.9181 146.362 72.2684C146.611 72.6187 146.971 72.8556 147.448 72.9789C147.922 73.1048 148.559 73.1664 149.356 73.1664C150.954 73.1664 151.963 72.8679 152.388 72.2684C152.813 71.6689 153.025 70.349 153.025 68.3013V59.3976C153.025 57.8014 152.924 56.6542 152.726 55.956C152.526 55.2579 151.951 54.5843 151.003 53.9355C150.504 53.5876 149.88 53.2003 149.132 52.776C148.383 52.3516 147.584 51.9026 146.734 51.429C145.885 50.9553 145.023 50.4693 144.152 49.9684C143.278 49.4701 142.49 48.9964 141.794 48.5474C140.745 47.8492 139.91 47.188 139.286 46.5639C138.661 45.9397 138.187 45.2538 137.864 44.5063C137.538 43.7588 137.328 42.9101 137.227 41.9627C137.126 41.0154 137.076 39.8435 137.076 38.4447V32.7581C137.076 30.0147 137.237 27.8189 137.563 26.1734C137.886 24.5279 138.486 23.2548 139.36 22.3568C140.234 21.4588 141.456 20.8741 143.029 20.5978C144.601 20.3239 146.66 20.1858 149.206 20.1858C151.751 20.1858 153.81 20.3239 155.383 20.5978C156.955 20.8716 158.19 21.4588 159.088 22.3568C159.987 23.2548 160.597 24.5279 160.923 26.1734C161.246 27.8189 161.409 30.0147 161.409 32.7581V40.0927H153.022L153.03 40.0878Z" fill="white"/>
<path d="M197.586 80.0471V66.8778H190.322V80.0471H181.936V32.6051C181.936 29.911 182.096 27.74 182.422 26.0944C182.745 24.4489 183.358 23.1882 184.256 22.3149C185.155 21.4415 186.365 20.8692 187.888 20.5928C189.411 20.319 191.371 20.1808 193.766 20.1808C196.161 20.1808 198.321 20.3313 199.943 20.6299C201.565 20.9284 202.837 21.5155 203.763 22.3889C204.686 23.2622 205.323 24.5106 205.671 26.1315C206.019 27.7523 206.194 29.911 206.194 32.6051V80.0471H197.583H197.586ZM193.917 27.8905C193.169 27.8905 192.557 27.9546 192.083 28.078C191.606 28.2038 191.233 28.4283 190.959 28.7515C190.685 29.0772 190.51 29.5508 190.436 30.1725C190.359 30.7967 190.322 31.6059 190.322 32.6051V59.8442H197.586V32.6051C197.586 31.6084 197.536 30.7967 197.435 30.1725C197.334 29.5484 197.161 29.0747 196.912 28.7515C196.662 28.4283 196.287 28.2038 195.788 28.078C195.29 27.9546 194.665 27.8905 193.917 27.8905Z" fill="white"/>
<path d="M242.441 80.0471V66.8778H235.178V80.0471H226.791V32.6051C226.791 29.911 226.951 27.74 227.277 26.0944C227.601 24.4489 228.213 23.1882 229.112 22.3149C230.01 21.4415 231.22 20.8692 232.743 20.5928C234.267 20.319 236.224 20.1808 238.622 20.1808C241.019 20.1808 243.177 20.3313 244.799 20.6299C246.421 20.9284 247.695 21.5155 248.618 22.3889C249.541 23.2622 250.178 24.5106 250.526 26.1315C250.875 27.7523 251.05 29.911 251.05 32.6051V80.0471H242.439H242.441ZM238.772 27.8905C238.024 27.8905 237.412 27.9546 236.938 28.078C236.464 28.2038 236.089 28.4283 235.815 28.7515C235.541 29.0772 235.365 29.5508 235.291 30.1725C235.217 30.7967 235.18 31.6059 235.18 32.6051V59.8442H242.443V32.6051C242.443 31.6084 242.394 30.7967 242.293 30.1725C242.192 29.5484 242.019 29.0747 241.77 28.7515C241.52 28.4283 241.145 28.2038 240.646 28.078C240.147 27.9546 239.523 27.8905 238.775 27.8905H238.772Z" fill="white"/>
<g filter="url(#filter0_d_307_472)">
<path d="M287.37 45.9989V32.6051C287.37 31.6084 287.333 30.7967 287.259 30.1725C287.185 29.5484 287.01 29.0747 286.736 28.7515C286.462 28.4283 286.086 28.2038 285.612 28.078C285.136 27.9546 284.526 27.8905 283.778 27.8905C282.978 27.8905 282.344 27.9546 281.87 28.078C281.393 28.2038 281.02 28.4406 280.746 28.7885C280.472 29.1388 280.297 29.6248 280.223 30.249C280.149 30.8732 280.112 31.6602 280.112 32.6051V68.2989C280.112 69.3474 280.149 70.1837 280.223 70.8054C280.297 71.4296 280.472 71.9156 280.746 72.2659C281.02 72.6163 281.393 72.8531 281.87 72.9765C282.344 73.1023 282.981 73.164 283.778 73.164C284.526 73.164 285.138 73.1023 285.612 72.9765C286.086 72.8531 286.462 72.6163 286.736 72.2659C287.01 71.9181 287.185 71.4321 287.259 70.8054C287.333 70.1812 287.37 69.3474 287.37 68.2989V54.6041H295.683V68.2989C295.683 71.0941 295.52 73.312 295.197 74.96C294.871 76.6055 294.261 77.8539 293.362 78.7026C292.463 79.5512 291.239 80.1113 289.693 80.3851C288.145 80.659 286.173 80.7971 283.778 80.7971C281.233 80.7971 279.159 80.659 277.564 80.3851C275.964 80.1113 274.717 79.5364 273.819 78.6631C272.92 77.7897 272.308 76.5315 271.984 74.8835C271.659 73.238 271.498 71.0423 271.498 68.2989V32.6051C271.498 29.911 271.673 27.74 272.021 26.0944C272.37 24.4489 273.007 23.1882 273.932 22.3149C274.856 21.4415 276.115 20.8692 277.715 20.5928C279.312 20.319 281.334 20.1808 283.781 20.1808C286.227 20.1808 288.148 20.319 289.696 20.5928C291.244 20.8667 292.466 21.4415 293.365 22.3149C294.263 23.1882 294.873 24.4366 295.199 26.0574C295.522 27.6783 295.685 29.8617 295.685 32.6051V45.9989H287.373H287.37Z" fill="white"/>
</g>
<defs>
<filter id="filter0_d_307_472" x="267.498" y="20.1808" width="32.1875" height="68.6163" filterUnits="userSpaceOnUse" color-interpolation-filters="sRGB">
<feFlood flood-opacity="0" result="BackgroundImageFix"/>
<feColorMatrix in="SourceAlpha" type="matrix" values="0 0 0 0 0 0 0 0 0 0 0 0 0 0 0 0 0 0 127 0" result="hardAlpha"/>
<feOffset dy="4"/>
<feGaussianBlur stdDeviation="2"/>
<feComposite in2="hardAlpha" operator="out"/>
<feColorMatrix type="matrix" values="0 0 0 0 0 0 0 0 0 0 0 0 0 0 0 0 0 0 0.25 0"/>
<feBlend mode="normal" in2="BackgroundImageFix" result="effect1_dropShadow_307_472"/>
<feBlend mode="normal" in="SourceGraphic" in2="effect1_dropShadow_307_472" result="shape"/>
</filter>
</defs>
</svg>
